<svg width="27" height="27" viewBox="0 0 27 27" fill="none" xmlns="http://www.w3.org/2000/svg">
<rect width="27" height="27" rx="4" fill="url(#paint0_linear_340_4525)"/>
<path d="M15.1263 11.0513L9.56687 14.734C8.83092 13.6227 9.13387 12.1242 10.2467 11.3868L15.8061 7.7041C16.5421 8.81541 16.2376 10.3139 15.1263 11.0513Z" fill="white"/>
<path d="M16.2056 8.92624C16.1864 8.50507 16.0563 8.08242 15.8066 7.7041L10.2456 11.3868C9.48753 11.8892 9.10478 12.7463 9.17276 13.5946L16.0534 9.03708C16.1051 9.00161 16.1568 8.96466 16.2056 8.92624Z" fill="white"/>
<path d="M16.5931 18.6211L11.0337 22.3053C10.2977 21.194 10.6007 19.6955 11.7135 18.9581L17.2729 15.2754C18.0104 16.3867 17.7059 17.8852 16.5931 18.6211Z" fill="white"/>
<path d="M10.6391 20.7987C10.6021 21.313 10.7278 21.8421 11.0337 22.3046L16.5931 18.622C17.437 18.0633 17.8153 17.0644 17.6261 16.1289L10.9539 20.5505C10.8401 20.6244 10.7351 20.7086 10.6391 20.7987Z" fill="white"/>
<path d="M15.7415 14.2343L9.20518 12.9072C8.93918 14.2136 9.78448 15.4889 11.0909 15.7549L17.6272 17.082C17.8932 15.7742 17.0479 14.5003 15.7415 14.2343Z" fill="white"/>
<path d="M9.21387 13.9111C9.41485 14.8141 10.1271 15.5589 11.0907 15.7554L17.627 17.0825C17.7289 16.5815 17.6669 16.085 17.4777 15.6475C17.3211 15.5781 17.1541 15.5234 16.9782 15.4879L9.21387 13.9111Z" fill="white"/>
<circle cx="16.1993" cy="5.63485" r="1.17391" fill="white"/>
<defs>
<linearGradient id="paint0_linear_340_4525" x1="-1.05469" y1="14.5547" x2="29.9531" y2="14.7656" gradientUnits="userSpaceOnUse">
<stop stop-color="#C266E7"/>
<stop offset="1" stop-color="#602EDF"/>
</linearGradient>
</defs>
</svg>
