<svg xmlns="http://www.w3.org/2000/svg" width="14" height="15" viewBox="0 0 14 15" fill="none">
    <g clip-path="url(#clip0_7954_1409)">
        <path
            d="M13.0391 8.89857L12.2205 8.08008L11.0604 9.24016L11.879 10.0587C12.5186 10.6983 12.5186 11.7393 11.879 12.3789C11.2395 13.0185 10.1985 13.0185 9.55878 12.3789L5.25993 8.08008L4.09985 9.24016L8.3987 13.539C9.68001 14.8203 11.7578 14.8203 13.0391 13.539C14.3204 12.2577 14.3204 10.1799 13.0391 8.89857Z"
            fill="currentColor"></path>
        <path
            d="M4.44133 12.3789C3.80164 13.0185 2.76065 13.0185 2.12106 12.3789C1.48148 11.7393 1.48148 10.6983 2.12106 10.0587L6.41991 5.75981L5.25983 4.59973L0.960983 8.89857C-0.320328 10.1799 -0.320328 12.2577 0.960983 13.539C2.24229 14.8203 4.3201 14.8203 5.60141 13.539L6.41991 12.7204L5.25983 11.5603L4.44133 12.3789Z"
            fill="currentColor"></path>
        <path
            d="M9.55865 2.62106C10.1983 1.98148 11.2393 1.98148 11.8789 2.62106C12.5185 3.26065 12.5185 4.30164 11.8789 4.94133L7.58008 9.24017L8.74016 10.4003L13.039 6.10141C14.3203 4.8201 14.3203 2.74229 13.039 1.46098C11.7577 0.179672 9.67989 0.179672 8.39857 1.46098L7.58008 2.27959L8.74016 3.43967L9.55865 2.62106Z"
            fill="currentColor"></path>
        <path
            d="M1.77959 6.91991L2.93967 5.75983L2.12106 4.94133C1.48148 4.30164 1.48148 3.26065 2.12106 2.62106C2.76065 1.98148 3.80164 1.98148 4.44133 2.62106L8.91 7.08974L10.0701 5.92966L5.60141 1.46098C4.3201 0.179672 2.24229 0.179672 0.960983 1.46098C-0.320328 2.74229 -0.320328 4.8201 0.960983 6.10141L1.77959 6.91991Z"
            fill="currentColor"></path>
    </g>
    <defs>
        <clipPath id="clip0_7954_1409">
            <rect width="14" height="14" fill="white" transform="translate(0 0.5)"></rect>
        </clipPath>
    </defs>
</svg>