<svg xmlns="http://www.w3.org/2000/svg" width="16" height="16" viewBox="0 0 18 18" fill="none">
    <g clip-path="url(#clip0_3730_31042)">
        <path
            d="M11.3646 1.7754C11.2875 1.5435 11.0928 1.3737 10.8567 1.3329L9.98881 1.1826L9.58141 0.3642C9.46891 0.1398 9.24631 0 9.00001 0C8.75371 0 8.53111 0.1398 8.41861 0.3645L8.01121 1.1829L7.14361 1.3332C6.90721 1.374 6.71221 1.5435 6.63541 1.7757C6.55591 2.0139 6.61291 2.2737 6.78361 2.4546L7.40761 3.1152L7.27501 4.035C7.23841 4.2876 7.34341 4.5351 7.54861 4.6806C7.65961 4.7595 7.78951 4.7994 7.91971 4.7994C8.02081 4.7994 8.12251 4.7754 8.21581 4.7265L8.99971 4.3182L9.78361 4.7265C9.99781 4.8387 10.2537 4.8204 10.4511 4.6806C10.6566 4.5351 10.7613 4.2873 10.7247 4.035L10.5921 3.1152L11.2161 2.4546C11.3868 2.2737 11.4438 2.0139 11.3643 1.7757L11.3646 1.7754ZM10.7805 2.0424L10.0569 2.8086C9.99391 2.8752 9.96481 2.9667 9.97801 3.0573L10.1316 4.1205C10.1376 4.1631 10.1145 4.1841 10.1046 4.1913C10.0836 4.2054 10.0692 4.1985 10.0611 4.1946L9.13861 3.7137C9.05191 3.6687 8.94811 3.6687 8.86141 3.7137L7.93891 4.1946C7.93081 4.1988 7.91611 4.2054 7.89541 4.1913C7.88551 4.1841 7.86271 4.1628 7.86841 4.1205L8.02201 3.0573C8.03521 2.9667 8.00611 2.8752 7.94311 2.8086L7.21951 2.0424C7.19221 2.0133 7.20001 1.9785 7.20451 1.965C7.21231 1.9413 7.22611 1.9278 7.24591 1.9242L8.26351 1.7478C8.35741 1.7313 8.43811 1.6713 8.48101 1.5858L8.95621 0.6318C8.96011 0.624 8.97211 0.6 9.00001 0.6C9.02791 0.6 9.04021 0.6237 9.04381 0.6315L9.51901 1.5858C9.56191 1.6713 9.64231 1.7313 9.73651 1.7478L10.7544 1.9242C10.7736 1.9278 10.7874 1.9413 10.7955 1.965C10.8003 1.9785 10.8078 2.0133 10.7805 2.0424Z"
            fill="currentColor"></path>
        <path
            d="M5.96441 4.1753C5.88731 3.9434 5.69261 3.7736 5.45651 3.7328L4.58861 3.5825L4.18121 2.7641C4.06931 2.5397 3.84671 2.3999 3.60011 2.3999C3.35351 2.3999 3.13121 2.5397 3.01871 2.7644L2.61131 3.5828L1.74371 3.7331C1.50731 3.7739 1.31231 3.9434 1.23551 4.1756C1.15601 4.4138 1.21301 4.6736 1.38371 4.8545L2.00771 5.5151L1.87511 6.4349C1.83851 6.6875 1.94351 6.935 2.14871 7.0805C2.25971 7.1594 2.38961 7.1993 2.51981 7.1993C2.62091 7.1993 2.72261 7.1753 2.81591 7.1264L3.59981 6.7181L4.38371 7.1264C4.59821 7.2386 4.85411 7.2203 5.05121 7.0805C5.25671 6.935 5.36141 6.6872 5.32481 6.4349L5.19221 5.5151L5.81621 4.8545C5.98691 4.6736 6.04391 4.4135 5.96441 4.1753ZM5.38031 4.4423L4.65671 5.2085C4.59371 5.2751 4.56461 5.3666 4.57781 5.4572L4.73141 6.5204C4.73741 6.563 4.71431 6.584 4.70441 6.5912C4.68341 6.6053 4.66901 6.5987 4.66091 6.5945L3.73841 6.1136C3.65171 6.0686 3.54791 6.0686 3.46121 6.1136L2.53871 6.5945C2.53061 6.599 2.51621 6.6053 2.49521 6.5912C2.48531 6.584 2.46251 6.5627 2.46821 6.5204L2.62181 5.4572C2.63501 5.3666 2.60591 5.2751 2.54291 5.2085L1.81931 4.4423C1.79201 4.4132 1.79981 4.3784 1.80431 4.3649C1.81211 4.3412 1.82591 4.3277 1.84571 4.3241L2.86331 4.1477C2.95721 4.1312 3.03791 4.0712 3.08081 3.9857L3.55601 3.0317C3.55991 3.0239 3.57191 2.9999 3.59981 2.9999C3.62771 2.9999 3.64001 3.0236 3.64361 3.0314L4.11881 3.9857C4.16171 4.0712 4.24211 4.1312 4.33631 4.1477L5.35421 4.3241C5.37341 4.3277 5.38721 4.3412 5.39531 4.3649C5.40011 4.3784 5.40761 4.4132 5.38031 4.4423Z"
            fill="currentColor"></path>
        <path
            d="M16.7647 4.1753C16.6876 3.9434 16.4929 3.7736 16.2568 3.7328L15.3889 3.5825L14.9815 2.7641C14.8696 2.5397 14.647 2.3999 14.4004 2.3999C14.1538 2.3999 13.9315 2.5397 13.819 2.7644L13.4116 3.5828L12.544 3.7331C12.3076 3.7739 12.1126 3.9434 12.0358 4.1756C11.9563 4.4138 12.0133 4.6736 12.184 4.8545L12.808 5.5151L12.6754 6.4349C12.6388 6.6875 12.7438 6.935 12.949 7.0805C13.06 7.1594 13.1899 7.1993 13.3201 7.1993C13.4212 7.1993 13.5229 7.1753 13.6162 7.1264L14.4001 6.7181L15.184 7.1264C15.3982 7.2386 15.6544 7.2203 15.8515 7.0805C16.057 6.935 16.1617 6.6872 16.1251 6.4349L15.9925 5.5151L16.6165 4.8545C16.7872 4.6736 16.8442 4.4135 16.7647 4.1753ZM16.1806 4.4423L15.457 5.2085C15.394 5.2751 15.3649 5.3666 15.3781 5.4572L15.5317 6.5204C15.5377 6.563 15.5146 6.584 15.5047 6.5912C15.4837 6.6053 15.4693 6.5987 15.4612 6.5945L14.5387 6.1136C14.452 6.0686 14.3482 6.0686 14.2615 6.1136L13.339 6.5945C13.3312 6.599 13.3162 6.6053 13.2955 6.5912C13.2856 6.584 13.2628 6.5627 13.2685 6.5204L13.4221 5.4572C13.4353 5.3666 13.4062 5.2751 13.3432 5.2085L12.6196 4.4423C12.5923 4.4132 12.6001 4.3784 12.6046 4.3649C12.6124 4.3412 12.6262 4.3277 12.646 4.3241L13.6636 4.1477C13.7575 4.1312 13.8382 4.0712 13.8811 3.9857L14.3563 3.0317C14.3602 3.0239 14.3722 2.9999 14.4001 2.9999C14.428 2.9999 14.4403 3.0236 14.4439 3.0314L14.9191 3.9857C14.962 4.0712 15.0424 4.1312 15.1366 4.1477L16.1545 4.3241C16.1737 4.3277 16.1875 4.3412 16.1956 4.3649C16.2004 4.3784 16.2079 4.4132 16.1806 4.4423Z"
            fill="currentColor"></path>
        <path
            d="M9 7.19995C4.0374 7.19995 0 11.2374 0 16.2C0 16.5309 0.2691 16.8 0.6 16.8H4.2C4.5309 16.8 4.8 16.5309 4.8 16.2C4.8 13.884 6.684 12 9 12C10.4205 12 11.7336 12.7188 12.5073 13.896C11.1693 14.3691 10.1319 14.751 9.3681 15.051C9.2496 15.0207 9.1278 15 9 15C8.1729 15 7.5 15.6729 7.5 16.5C7.5 17.3271 8.1729 18 9 18C9.5907 18 10.098 17.6538 10.3425 17.1561C11.1264 16.7292 12.1326 16.1496 13.1448 15.5556C13.1778 15.768 13.2 15.9828 13.2 16.2C13.2 16.5309 13.4691 16.8 13.8 16.8H17.4C17.7309 16.8 18 16.5309 18 16.2C18 11.2374 13.9626 7.19995 9 7.19995ZM12.1731 12.6027C11.3829 11.9049 10.3761 11.4774 9.3 11.4102V7.80745C11.3898 7.88125 13.2873 8.72125 14.7198 10.056L12.1731 12.6027ZM4.2 16.2H0.6C0.6 13.9917 1.4577 11.9811 2.856 10.4802L5.4054 13.0296C4.6578 13.8762 4.2 14.9844 4.2 16.2ZM5.8296 12.6054L3.2802 10.056C4.7127 8.72155 6.6099 7.88155 8.7 7.80745V11.415C7.6026 11.4834 6.6057 11.9199 5.8296 12.6054ZM15.3765 13.5333C13.9368 14.3949 11.9424 15.5805 10.4886 16.3902C10.461 16.0161 10.3017 15.6786 10.0491 15.4308C11.2566 14.9703 13.0086 14.346 15.3765 13.5333ZM8.9997 17.4C8.5035 17.4 8.0997 16.9962 8.0997 16.5C8.0997 16.0038 8.5035 15.6 8.9997 15.6C9.4959 15.6 9.8997 16.0038 9.8997 16.5C9.8997 16.9962 9.4959 17.4 8.9997 17.4ZM13.7997 16.2C13.7997 15.8718 13.7649 15.5466 13.6992 15.2292C14.4045 14.8128 15.0921 14.4027 15.6858 14.0478C15.9555 13.8843 16.0548 13.56 15.9225 13.2765C15.7908 12.9948 15.4818 12.8622 15.1842 12.9648C14.4219 13.2264 13.7253 13.4682 13.0875 13.692C12.9417 13.4547 12.777 13.2333 12.5961 13.0281L15.1434 10.4808C16.5417 11.9817 17.3994 13.9923 17.3994 16.2006H13.7994L13.7997 16.2Z"
            fill="currentColor"></path>
    </g>
    <defs>
        <clipPath id="clip0_3730_31042">
            <rect width="24" height="24" fill="white"></rect>
        </clipPath>
    </defs>
</svg>