<svg xmlns="http://www.w3.org/2000/svg" width="16" height="16" viewBox="0 0 24 24" fill="none">
    <path
        d="M19.9688 23.2492H4.03125C2.84231 23.2492 1.875 22.282 1.875 21.093V9.74829C1.875 9.3341 2.21077 8.99829 2.625 8.99829C3.03923 8.99829 3.375 9.3341 3.375 9.74829V21.093C3.375 21.4549 3.66938 21.7492 4.03125 21.7492H19.9688C20.3306 21.7492 20.625 21.4549 20.625 21.093V9.74829C20.625 9.3341 20.9608 8.99829 21.375 8.99829C21.7892 8.99829 22.125 9.3341 22.125 9.74829V21.093C22.125 22.2819 21.1577 23.2492 19.9688 23.2492Z"
        fill="currentColor"></path>
    <path
        d="M23.25 12.373C23.058 12.373 22.8661 12.2997 22.7197 12.1533L13.3921 2.82575C12.6245 2.05812 11.3755 2.05812 10.6079 2.82575L1.28033 12.1533C0.987457 12.4462 0.512566 12.4462 0.219691 12.1533C-0.0732305 11.8604 -0.0732305 11.3855 0.219691 11.0927L9.54725 1.76506C10.8997 0.412623 13.1003 0.412623 14.4527 1.76506L23.7803 11.0926C24.0732 11.3855 24.0732 11.8604 23.7803 12.1533C23.6339 12.2997 23.4419 12.373 23.25 12.373Z"
        fill="currentColor"></path>
    <path
        d="M15 23.249H9C8.58577 23.249 8.25 22.9132 8.25 22.499V15.8428C8.25 14.5504 9.30141 13.499 10.5938 13.499H13.4062C14.6986 13.499 15.75 14.5504 15.75 15.8428V22.499C15.75 22.9132 15.4142 23.249 15 23.249ZM9.75 21.749H14.25V15.8428C14.25 15.3775 13.8715 14.999 13.4062 14.999H10.5938C10.1285 14.999 9.75 15.3775 9.75 15.8428V21.749Z"
        fill="currentColor"></path>
</svg>