<svg xmlns="http://www.w3.org/2000/svg" width="16" height="16" viewBox="0 0 24 24" fill="none">
    <path
        d="M20.352 22.608H3.64804C1.71604 22.608 0.144043 21.036 0.144043 19.104V4.80005H20.352C22.284 4.80005 23.856 6.37205 23.856 8.30405V19.104C23.856 21.036 22.284 22.608 20.352 22.608ZM1.38004 6.03605V19.104C1.38004 20.352 2.40004 21.372 3.64804 21.372H20.352C21.6 21.372 22.62 20.352 22.62 19.104V8.30405C22.62 7.05605 21.6 6.03605 20.352 6.03605H1.38004Z"
        fill="currentColor"></path>
    <path
        d="M19.644 19.2722H8.19602C7.84802 19.2722 7.57202 18.9962 7.57202 18.6482C7.57202 18.3122 7.84802 18.0242 8.19602 18.0242H19.644C19.98 18.0242 20.268 18.3002 20.268 18.6482C20.256 18.9962 19.98 19.2722 19.644 19.2722Z"
        fill="currentColor"></path>
    <path
        d="M0.768043 12.2641C0.420043 12.2641 0.144043 11.9881 0.144043 11.6401V3.34809C0.144043 2.26809 1.02004 1.39209 2.10004 1.39209H7.47604C8.55604 1.39209 9.43204 2.26809 9.43204 3.34809V5.42409C9.43204 5.76009 9.15604 6.04809 8.80804 6.04809C8.46004 6.04809 8.18404 5.77209 8.18404 5.42409V3.34809C8.18404 2.95209 7.86004 2.62809 7.46404 2.62809H2.10004C1.70404 2.62809 1.38004 2.95209 1.38004 3.34809V11.6401C1.38004 11.9761 1.10404 12.2641 0.768043 12.2641Z"
        fill="currentColor"></path>
</svg>