<svg xmlns="http://www.w3.org/2000/svg" width="14" height="15" viewBox="0 0 14 15" fill="none">
    <path
        d="M11.3557 14.0332H2.64457C1.44375 14.0332 0.466797 13.0563 0.466797 11.8554V3.14433C0.466797 1.9435 1.44375 0.966553 2.64457 0.966553H11.3557C12.5565 0.966553 13.5335 1.9435 13.5335 3.14433V11.8554C13.5335 13.0563 12.5565 14.0332 11.3557 14.0332ZM2.64457 1.58877C1.78684 1.58877 1.08902 2.2866 1.08902 3.14433V11.8554C1.08902 12.7132 1.78684 13.411 2.64457 13.411H11.3557C12.2134 13.411 12.9112 12.7132 12.9112 11.8554V3.14433C12.9112 2.2866 12.2134 1.58877 11.3557 1.58877H2.64457Z"
        fill="currentColor"></path>
    <path
        d="M8.07526 10.3061C8.07405 10.3061 8.07287 10.3061 8.07168 10.306C7.94615 10.3046 7.83381 10.2279 7.7868 10.1115L6.04066 5.78924L5.19947 7.61683C5.1487 7.72718 5.03832 7.79787 4.91686 7.79787H3.40486C3.23303 7.79787 3.09375 7.65855 3.09375 7.48676C3.09375 7.31493 3.23303 7.17564 3.40486 7.17564H4.71756L5.77665 4.87464C5.82854 4.76186 5.94228 4.69071 6.06663 4.69369C6.19074 4.69662 6.30121 4.77309 6.34772 4.88817L8.08453 9.18729L8.86477 7.37668C8.91392 7.2626 9.02623 7.18871 9.15049 7.18871H10.5953C10.7671 7.18871 10.9064 7.328 10.9064 7.49982C10.9064 7.67162 10.7671 7.81093 10.5953 7.81093H9.35514L8.36092 10.118C8.31174 10.2322 8.19933 10.3061 8.07526 10.3061Z"
        fill="currentColor"></path>
</svg>