<svg xmlns="http://www.w3.org/2000/svg" width="16" height="16" viewBox="0 0 24 24" fill="none">
    <path
        d="M8.7273 0H2.18184C0.978495 0 0 0.978495 0 2.18184V8.7273C0 9.93059 0.978495 10.9091 2.18184 10.9091H8.7273C9.93059 10.9091 10.9091 9.93064 10.9091 8.7273V2.18184C10.9091 0.978495 9.93059 0 8.7273 0ZM9.81819 8.7273C9.81819 9.32866 9.32866 9.81819 8.7273 9.81819H2.18184C1.58047 9.81819 1.09094 9.32866 1.09094 8.7273V2.18184C1.09094 1.58047 1.58047 1.09094 2.18184 1.09094H8.7273C9.32866 1.09094 9.81819 1.58047 9.81819 2.18184V8.7273Z"
        fill="currentColor"></path>
    <path
        d="M21.8182 0H15.2728C14.0694 0 13.0909 0.978495 13.0909 2.18184V8.7273C13.0909 9.93059 14.0694 10.9091 15.2728 10.9091H21.8182C23.0215 10.9091 24.0001 9.93064 24.0001 8.7273V2.18184C24 0.978495 23.0215 0 21.8182 0ZM22.9091 8.7273C22.9091 9.32866 22.4196 9.81819 21.8182 9.81819H15.2728C14.6714 9.81819 14.1819 9.32866 14.1819 8.7273V2.18184C14.1819 1.58047 14.6714 1.09094 15.2728 1.09094H21.8182C22.4196 1.09094 22.9091 1.58047 22.9091 2.18184V8.7273Z"
        fill="currentColor"></path>
    <path
        d="M8.7273 13.0908H2.18184C0.978495 13.0908 0 14.0693 0 15.2727V21.8181C0 23.0214 0.978495 24 2.18184 24H8.7273C9.93059 24 10.9091 23.0215 10.9091 21.8181V15.2727C10.9091 14.0693 9.93059 13.0908 8.7273 13.0908ZM9.81819 21.8181C9.81819 22.4195 9.32866 22.909 8.7273 22.909H2.18184C1.58047 22.909 1.09094 22.4195 1.09094 21.8181V15.2727C1.09094 14.6713 1.58047 14.1818 2.18184 14.1818H8.7273C9.32866 14.1818 9.81819 14.6713 9.81819 15.2727V21.8181Z"
        fill="currentColor"></path>
    <path
        d="M21.2728 18H19.091V15.8182C19.091 15.5167 18.847 15.2727 18.5455 15.2727C18.244 15.2727 18 15.5167 18 15.8182V18H15.8182C15.5167 18 15.2727 18.244 15.2727 18.5455C15.2727 18.847 15.5167 19.091 15.8182 19.091H18.0001V21.2727C18.0001 21.5742 18.244 21.8182 18.5455 21.8182C18.847 21.8182 19.091 21.5742 19.091 21.2727V19.0909H21.2728C21.5743 19.0909 21.8183 18.8469 21.8183 18.5454C21.8183 18.244 21.5743 18 21.2728 18Z"
        fill="currentColor"></path>
</svg>