<svg xmlns="http://www.w3.org/2000/svg" width="16" height="16" viewBox="0 0 24 24" fill="none">
    <path
        d="M16.5547 12.738L16.2188 12.7342V11.4806C17.0371 11.1903 17.625 10.4087 17.625 9.49157C17.625 9.10325 17.3102 8.78872 16.9219 8.78872C16.5336 8.78872 16.2188 9.10386 16.2188 9.49218C16.2188 9.65258 16.1641 9.80015 16.0734 9.9186C15.8533 9.28986 15.3976 8.77124 14.8125 8.46857C14.7937 8.29339 14.9193 7.53369 14.4133 6.69041L14.7941 6.30964C15.0687 6.0351 15.0687 5.58988 14.7941 5.31529C14.5195 5.04074 14.0743 5.04074 13.7997 5.31529L13.4127 5.70233C12.54 5.19313 11.4617 5.19219 10.5874 5.70233L10.2003 5.31529C9.92578 5.04074 9.48056 5.04074 9.20597 5.31529C8.93137 5.58983 8.93137 6.03505 9.20597 6.30964L9.58673 6.69041C9.08142 7.53266 9.20719 8.28613 9.18755 8.46857C8.57873 8.78352 8.10961 9.33205 7.90064 9.99533C7.76944 9.86746 7.68755 9.6891 7.68755 9.49157C7.68755 9.10325 7.37273 8.78872 6.98442 8.78872C6.59611 8.78872 6.2813 9.10386 6.2813 9.49218C6.2813 10.4435 6.91439 11.2493 7.7813 11.5115V12.7333L7.35155 12.738C6.37369 12.7489 5.57812 13.5533 5.57812 14.5312C5.57812 14.9195 5.89294 15.2343 6.28125 15.2343C6.66956 15.2343 6.98438 14.9195 6.98438 14.5312C6.98438 14.3201 7.15608 14.1465 7.36711 14.1441L7.78125 14.1396C7.79545 14.3211 7.70002 15.0928 8.09437 16.0552C6.89742 16.6883 7.00927 17.9559 7.00669 17.965C7.01259 18.3489 7.32652 18.6622 7.7205 18.6573C8.10877 18.6513 8.41875 18.3318 8.4128 17.9435C8.41425 17.9386 8.35631 17.422 8.84597 17.2593C10.5193 19.1431 13.4424 19.1531 15.1293 17.2871C15.1964 17.3187 15.2584 17.3615 15.312 17.416C15.5313 17.6388 15.4897 17.9188 15.4935 17.9434C15.4875 18.3358 15.8038 18.6573 16.1967 18.6573C16.58 18.6573 16.8936 18.3495 16.8995 17.9649C16.8969 17.9552 16.9916 16.7441 15.8881 16.0978C16.3026 15.1171 16.2036 14.3275 16.2188 14.1404L16.5391 14.144C16.7502 14.1463 16.9219 14.32 16.9219 14.5311C16.9219 14.9194 17.2367 15.2342 17.625 15.2342C18.0133 15.2342 18.3281 14.9194 18.3281 14.5311C18.3281 13.5533 17.5326 12.7489 16.5547 12.738ZM13.4062 8.13275V8.17963H10.5938V8.13275C10.5938 7.35735 11.2246 6.7265 12 6.7265C12.7754 6.7265 13.4062 7.35735 13.4062 8.13275ZM9.1875 14.4609V10.7731C9.1875 10.1185 9.72009 9.58588 10.3748 9.58588H11.25V17.1711C10.0623 16.8419 9.1875 15.752 9.1875 14.4609ZM12.6562 17.1953V9.58588H13.6252C14.2799 9.58588 14.8125 10.1185 14.8125 10.7731V14.4609C14.8125 15.7857 13.8915 16.8988 12.6562 17.1953Z"
        fill="currentColor"></path>
    <path
        d="M23.2969 11.2969H23.016C22.6668 5.76895 18.231 1.33322 12.7031 0.983953V0.703125C12.7031 0.314812 12.3883 0 12 0C11.6117 0 11.2969 0.314812 11.2969 0.703125V0.983953C5.76895 1.33322 1.33322 5.76895 0.983953 11.2969H0.703125C0.314812 11.2969 0 11.6117 0 12C0 12.3883 0.314812 12.7031 0.703125 12.7031H0.983953C1.33322 18.231 5.76895 22.6668 11.2969 23.016V23.2969C11.2969 23.6852 11.6117 24 12 24C12.3883 24 12.7031 23.6852 12.7031 23.2969V23.016C18.231 22.6668 22.6668 18.231 23.016 12.7031H23.2969C23.6852 12.7031 24 12.3883 24 12C24 11.6117 23.6852 11.2969 23.2969 11.2969ZM12.7031 21.607V21.1406C12.7031 20.7523 12.3883 20.4375 12 20.4375C11.6117 20.4375 11.2969 20.7523 11.2969 21.1406V21.607C6.54459 21.2625 2.73745 17.4554 2.39297 12.7031H2.85938C3.24769 12.7031 3.5625 12.3883 3.5625 12C3.5625 11.6117 3.24769 11.2969 2.85938 11.2969H2.39297C2.73745 6.54459 6.54459 2.73745 11.2969 2.39297V2.85938C11.2969 3.24769 11.6117 3.5625 12 3.5625C12.3883 3.5625 12.7031 3.24769 12.7031 2.85938V2.39297C17.4554 2.73745 21.2625 6.54459 21.607 11.2969H21.1406C20.7523 11.2969 20.4375 11.6117 20.4375 12C20.4375 12.3883 20.7523 12.7031 21.1406 12.7031H21.607C21.2625 17.4554 17.4554 21.2625 12.7031 21.607Z"
        fill="currentColor"></path>
</svg>