<svg xmlns="http://www.w3.org/2000/svg" width="16" height="16" viewBox="0 0 24 24" fill="none">
    <path fill-rule="evenodd" clip-rule="evenodd"
        d="M14.625 2.25H3.75C1.68 2.25 0 3.92887 0 6V20.25C0 22.3211 1.68 24 3.75 24H18C20.07 24 21.75 22.3211 21.75 20.25V9.375H20.25V20.25C20.25 21.4928 19.2412 22.5 18 22.5H3.75C2.50875 22.5 1.5 21.4928 1.5 20.25V6C1.5 4.75725 2.50875 3.75 3.75 3.75H14.625V2.25ZM4.125 17.25H17.625V15.75H4.125V17.25ZM4.125 13.875H17.625V12.375H4.125V13.875ZM6.375 5.25H4.125V6.75H4.5V9H4.125V10.5H6.375V9H6V6.75H6.375V5.25ZM18 10.5H19.5V9.75C19.5 7.68038 21.18 6 23.25 6H24V4.5H23.25C21.18 4.5 19.5 2.81962 19.5 0.75V0H18V0.75C18 2.81962 16.32 4.5 14.25 4.5H13.5V6H14.25C16.32 6 18 7.68038 18 9.75V10.5ZM7.875 10.5H16.5V9H7.875V10.5ZM18.75 3.45412C18.3075 4.18912 17.6887 4.80713 16.9537 5.25C17.6887 5.69287 18.3075 6.31088 18.75 7.04588C19.1925 6.31088 19.8113 5.69287 20.5463 5.25C19.8113 4.80713 19.1925 4.18912 18.75 3.45412Z"
        fill="currentColor"></path>
</svg>